<svg width="148" height="68" viewBox="0 0 148 68" fill="none" xmlns="http://www.w3.org/2000/svg">
<path d="M68 34C68 52.7777 52.7777 68 34 68C15.2223 68 0 52.7777 0 34C0 15.2223 15.2223 0 34 0C52.7777 0 68 15.2223 68 34Z" fill="#191919"/>
<path d="M30.842 47H37.302L43.524 22.588H37.234L33.902 37.208L30.162 22.588H23.668L19.792 37.14L16.494 22.588H10.204L16.392 47H22.886L26.864 31.802L30.842 47Z" fill="white"/>
<path d="M52.539 47.306C57.095 47.306 60.325 44.96 61.447 40.778H55.633C55.123 42.104 54.035 42.784 52.403 42.784C50.533 42.784 49.445 41.628 49.139 39.316H61.549C62.603 33.298 58.557 28.368 52.505 28.368C47.065 28.368 43.121 32.346 43.121 37.82C43.121 43.498 46.895 47.306 52.539 47.306ZM52.369 32.652C54.103 32.652 55.259 33.842 55.327 35.678H49.207C49.615 33.638 50.635 32.652 52.369 32.652Z" fill="white"/>
<path d="M78.3724 47V38.874H80.4804L85.4784 47H93.1284L87.1444 37.854C90.4424 36.46 92.3124 33.876 92.3124 30.748C92.3124 25.546 88.5384 22.588 81.9424 22.588H71.9464V47H78.3724ZM78.3724 27.892H81.6704C84.5264 27.892 85.8524 28.81 85.8524 30.748C85.8524 32.686 84.5264 33.57 81.6704 33.57H78.3724V27.892Z" fill="white"/>
<path d="M103.141 47.306C107.697 47.306 110.927 44.96 112.049 40.778H106.235C105.725 42.104 104.637 42.784 103.005 42.784C101.135 42.784 100.047 41.628 99.7406 39.316H112.151C113.205 33.298 109.159 28.368 103.107 28.368C97.6666 28.368 93.7226 32.346 93.7226 37.82C93.7226 43.498 97.4966 47.306 103.141 47.306ZM102.971 32.652C104.705 32.652 105.861 33.842 105.929 35.678H99.8086C100.217 33.638 101.237 32.652 102.971 32.652Z" fill="white"/>
<path d="M120.781 37.378C120.781 34.624 122.073 33.604 123.501 33.604C125.269 33.604 126.085 34.862 126.085 37.174V47H131.898V35.236C131.898 30.782 129.348 28.368 125.744 28.368C123.432 28.368 121.732 29.32 120.304 30.918V28.708H114.966V47H120.781V37.378Z" fill="white"/>
<path d="M147.66 41.288C147.014 41.696 146.096 41.934 145.144 41.934C143.546 41.934 142.798 41.118 142.798 39.35V33.774H147.796V28.708H142.798V23.336H136.984V28.708H133.584V33.774H136.984V40.71C136.984 44.892 139.398 47.34 143.512 47.34C145.144 47.34 146.368 47.068 147.66 46.354V41.288Z" fill="white"/>
</svg>
